

<svg width="1170pt" height="754pt" version="1.0" viewBox="0 0 1170 754" xmlns="http://www.w3.org/2000/svg">
<g transform="translate(0 754) scale(.1 -.1)">
<path d="m1520 3655v-2065h4475 4475v2065 2065h-4475-4475v-2065zm1601 1542c168-33 276-111 318-227 36-99 31-256-10-349-38-86-128-159-237-191-23-7-40-15-38-17s32-11 65-19c127-29 209-92 261-199 68-138 58-320-27-490-95-189-159-203-930-212l-503-6v868 867l513-5c401-4 529-8 588-20zm1169-637v-660l353-2 352-3v-200-200l-627-3-628-2v865 865h275 275v-660zm2280-192c145-469 265-859 268-865 3-10-57-13-280-13h-285l-37 158c-21 86-41 171-45 187l-7 30h-249-250l-44-187-45-188h-282-283l9 28c5 15 129 398 275 852s268 831 270 838c3 9 85 12 363 12h359l263-852zm970 471c0-420-2-407 58-311 16 26 110 192 208 369l179 322 294 1h293l-14-22c-8-13-93-153-188-313-188-315-235-388-287-446l-35-39 49-54c39-45 251-403 481-813l24-43h-304-303l-178 343c-97 188-199 378-225 422l-47 80-3-422-2-423h-275-275v865 865h275 275v-381zm2430 196v-185h-355-355v-155-155h300 300v-165-165h-300-300v-170-170l353-2 352-3 3-187 2-188h-630-630v865 865h630 630v-185zm-5964-1715c285-73 418-310 383-682-28-292-172-477-418-534-89-21-293-21-391 0-164 35-289 121-353 244-51 97-67 169-74 322-15 356 113 561 399 645 134 38 314 40 454 5zm3499 20c97-11 194-30 199-39 4-6-10-166-19-218l-6-31-225-4-226-3-23-27c-13-15-29-53-37-85-18-79-17-325 1-378 22-64 61-115 105-138 37-20 55-22 196-22 85 1 174 4 196 8l41 7 7-73c4-39 9-98 13-129l5-56-66-21c-165-51-417-54-563-7-187 60-296 177-350 376-24 90-24 328 0 419 83 309 361 464 752 421zm-1170-24c154-35 249-114 286-238 28-91 23-250-10-343-29-81-80-164-111-180-52-26-149-38-332-39l-188-1v-203-202l-192 2-193 3-3 607-2 607 67 4c38 2 190 3 338 2 204-2 287-7 340-19zm-3925-258v-272l24 32c13 18 84 141 157 272l134 240h202c112 0 203-3 203-6 0-14-294-496-324-530l-33-38 38-51c39-52 339-570 339-586 0-5-93-9-208-9h-208l-144 274c-79 151-151 284-161 297-18 23-19 16-19-273v-298h-195-195v610 610h195 195v-272zm3030 142v-130h-250-250v-105-105h210 210v-120-120h-210-210v-120-120l248-2 247-3v-130-130l-442-3-443-2v610 610h445 445v-130zm2820-137 1-268 22 27c12 15 82 136 156 268l133 240h204c112 0 204-2 204-4 0-13-296-495-327-532l-35-44 34-38c29-32 348-579 348-596 0-4-95-5-211-4l-210 3-115 220c-63 121-134 253-157 294l-42 74-10-588-192-3-193-2v610 610h195 195v-267zm1710 137v-130h-250-250v-105-105h210 210v-120-120h-210-210v-120-120h250 250v-135-135h-445-445v610 610h445 445v-130z"/>
<path d="m2570 4711v-181h129c156 0 184 8 214 64 27 51 31 174 7 220-32 62-57 71-211 74l-139 4v-181z"/>
<path d="m2570 4035v-218l163 6c89 4 175 9 190 13 43 10 60 54 65 166 4 87 2 102-21 151-37 82-58 90-244 95l-153 4v-217z"/>
<path d="m5847 4528c-48-171-86-313-83-315 2-2 80-2 173-1l170 3-82 307c-45 170-84 310-86 313-3 2-44-136-92-307z"/>
<path d="m3705 3079c-94-14-108-42-125-246-20-248 17-420 100-468 49-28 152-28 199 0 75 44 107 173 98 395-9 235-47 302-182 323-16 3-57 1-90-4z"/>
<path d="m5980 2930v-162l125 3c84 3 128 8 137 17 8 8 14 46 16 100 2 69-1 94-15 121-32 61-62 75-168 79l-95 4v-162z"/>
</g>
</svg>
